<?xml version="1.0" encoding="utf-8"?>
<!-- Generator: Adobe Illustrator 24.1.1, SVG Export Plug-In . SVG Version: 6.00 Build 0)  -->
<svg version="1.1" xmlns="http://www.w3.org/2000/svg" xmlns:xlink="http://www.w3.org/1999/xlink" x="0px" y="0px"
	 viewBox="0 0 24 24" style="enable-background:new 0 0 24 24;" xml:space="preserve">
<style type="text/css">
	.st0{fill:#3CA2A2;}
	.st1{fill:#FFEAB7;}
	.st2{fill:#92C7A3;}
</style>
<g id="Capa_1">
	<path class="st0" d="M17.6,24H6.4C2.9,24,0,21.1,0,17.6V6.4C0,2.9,2.9,0,6.4,0h11.1C21.1,0,24,2.9,24,6.4v11.1
		C24,21.1,21.1,24,17.6,24z"/>
	<g id="Layer_2">
		<g>
			<circle class="st1" cx="15.9" cy="8.1" r="2.9"/>
			<rect x="14.9" y="2.2" class="st1" width="2" height="2"/>
			<rect x="11.5" y="3.7" transform="matrix(0.7071 -0.7071 0.7071 0.7071 0.3649 10.1576)" class="st1" width="2" height="2"/>
			<rect x="10" y="7.1" class="st1" width="2" height="2"/>
			<rect x="11.5" y="10.6" transform="matrix(0.7071 -0.7071 0.7071 0.7071 -4.5207 12.1863)" class="st1" width="2" height="2"/>
			<rect x="18.4" y="10.6" transform="matrix(0.7071 -0.7071 0.7071 0.7071 -2.4919 17.0719)" class="st1" width="2" height="2"/>
			<rect x="19.8" y="7.1" class="st1" width="2" height="2"/>
			<rect x="18.4" y="3.7" transform="matrix(0.7071 -0.7071 0.7071 0.7071 2.3965 15.0501)" class="st1" width="2" height="2"/>
		</g>
		<path class="st2" d="M14,16.9h-1.4c-0.4,0-0.7-0.2-0.9-0.6c-0.6-1.4-2-2.4-3.6-2.4H5.2v1h-2c-0.5,0-1,0.4-1,1v0c0,0.5,0.4,1,1,1h1
			c0.5,0,1,0.4,1,1v0c0,0.5-0.4,1-1,1h-1c-0.5,0-1,0.4-1,1v0c0,0.5,0.4,1,1,1h2v1h2.9c1.6,0,3-0.9,3.6-2.4c0.2-0.3,0.5-0.6,0.9-0.6
			h3.4c0.5,0,1-0.4,1-1v-4.9c0-0.5-0.4-1-1-1c0,0,0,0,0,0c-0.5,0-1,0.4-1,1v3C14.9,16.5,14.5,16.9,14,16.9z"/>
	</g>
</g>
<g id="Capa_2">
</g>
</svg>
