<?xml version="1.0" encoding="utf-8"?>
<!-- Generator: Adobe Illustrator 24.1.1, SVG Export Plug-In . SVG Version: 6.00 Build 0)  -->
<svg version="1.1" xmlns="http://www.w3.org/2000/svg" xmlns:xlink="http://www.w3.org/1999/xlink" x="0px" y="0px"
	 viewBox="0 0 48 48" style="enable-background:new 0 0 48 48;" xml:space="preserve">
<style type="text/css">
	.st0{fill:url(#SVGID_1_);}
	.st1{fill:url(#SVGID_2_);}
	.st2{fill:url(#SVGID_3_);}
	.st3{fill:url(#SVGID_4_);}
	.st4{fill:url(#SVGID_5_);}
	.st5{fill:url(#SVGID_6_);}
	.st6{fill:url(#SVGID_7_);}
	.st7{fill:url(#SVGID_8_);}
	.st8{fill:url(#SVGID_9_);}
	.st9{fill:url(#SVGID_10_);}
	.st10{fill:url(#SVGID_11_);}
	.st11{opacity:0.55;fill:url(#SVGID_12_);}
	.st12{fill:url(#SVGID_13_);}
	.st13{fill:url(#SVGID_14_);}
	.st14{fill:url(#SVGID_15_);}
	.st15{fill:url(#SVGID_16_);}
	.st16{fill:#EEFFA6;stroke:#EEFFA6;stroke-miterlimit:10;}
	.st17{font-family:'Quicksand-Bold';}
	.st18{font-size:20.2589px;}
</style>
<g id="Layer_1">
	
		<linearGradient id="SVGID_1_" gradientUnits="userSpaceOnUse" x1="24.0161" y1="2.138" x2="24.0161" y2="40.0494" gradientTransform="matrix(1 0 0 -1 0 50)">
		<stop  offset="0" style="stop-color:#273A9B"/>
		<stop  offset="0.56" style="stop-color:#202F65"/>
		<stop  offset="1" style="stop-color:#021E2F"/>
	</linearGradient>
	<path class="st0" d="M32.2,42c-1-0.3-2.1-0.4-3.1-0.6c-2-0.2-3.6-2-3.6-4v-2.5h-3v2.5c0,2-1.5,3.8-3.6,4c-1.1,0.1-2.1,0.3-3.1,0.6
		c-0.6,0.2-0.9,0.8-0.8,1.3c0.1,0.4,0.4,0.7,0.8,0.8c2.7,0.6,5.4,0.9,8.2,0.9c2.8,0,5.5-0.2,8.2-0.8c0.6-0.1,1-0.7,0.8-1.3
		C32.9,42.4,32.6,42.1,32.2,42z"/>
	
		<linearGradient id="SVGID_2_" gradientUnits="userSpaceOnUse" x1="24.0003" y1="8.0135" x2="24.0003" y2="66.0998" gradientTransform="matrix(1 0 0 -1 0 50)">
		<stop  offset="0" style="stop-color:#27E9DE"/>
		<stop  offset="0.52" style="stop-color:#03A4EC"/>
		<stop  offset="1" style="stop-color:#2547A8"/>
	</linearGradient>
	<path class="st1" d="M41.4,36H6.6c-1.6,0-2.8-1.3-2.8-2.8c0-0.2,0-0.4,0.1-0.6L10,5.2C10.3,3.9,11.4,3,12.8,3h22.5
		c1.3,0,2.5,0.9,2.8,2.2l6.2,27.3c0.3,1.5-0.6,3-2.1,3.4C41.9,36,41.6,36,41.4,36z"/>
	
		<linearGradient id="SVGID_3_" gradientUnits="userSpaceOnUse" x1="24.0003" y1="19.7547" x2="24.0003" y2="58.7454" gradientTransform="matrix(1 0 0 -1 0 50)">
		<stop  offset="0" style="stop-color:#27E9DE"/>
		<stop  offset="0.52" style="stop-color:#03A4EC"/>
		<stop  offset="1" style="stop-color:#2547A8"/>
	</linearGradient>
	<path class="st2" d="M41.4,36H6.6c-1.6,0-2.8-1.3-2.8-2.8c0-0.2,0-0.4,0.1-0.6L10,5.2C10.3,3.9,11.4,3,12.8,3h22.5
		c1.3,0,2.5,0.9,2.8,2.2l6.2,27.3c0.3,1.5-0.6,3-2.1,3.4C41.9,36,41.6,36,41.4,36z"/>
	
		<linearGradient id="SVGID_4_" gradientUnits="userSpaceOnUse" x1="23.96" y1="7.0143" x2="23.96" y2="14.6585" gradientTransform="matrix(1 0 0 -1 0 50)">
		<stop  offset="0" style="stop-color:#273A9B"/>
		<stop  offset="0.56" style="stop-color:#202F65"/>
		<stop  offset="1" style="stop-color:#021E2F"/>
	</linearGradient>
	<path class="st3" d="M24,39c0.8,0,1.5-0.7,1.5-1.5c0,0,0,0,0,0v-2.5h-3v2.5c0,0.8,0.6,1.5,1.4,1.5C23.9,39,24,39,24,39z"/>
	
		<linearGradient id="SVGID_5_" gradientUnits="userSpaceOnUse" x1="23.995" y1="55.288" x2="23.995" y2="30.8963" gradientTransform="matrix(1 0 0 -1 0 50)">
		<stop  offset="0" style="stop-color:#27E9DE"/>
		<stop  offset="0.52" style="stop-color:#03A4EC"/>
		<stop  offset="1" style="stop-color:#2547A8"/>
	</linearGradient>
	<path class="st4" d="M11.2,6h25.5c0.5,0,1,0.1,1.5,0.4L38,5.2C37.7,3.9,36.6,3,35.2,3H12.8c-1.3,0-2.5,0.9-2.8,2.2L9.7,6.4
		C10.2,6.1,10.7,6,11.2,6z"/>
	
		<linearGradient id="SVGID_6_" gradientUnits="userSpaceOnUse" x1="24" y1="3.5169" x2="24" y2="61.3534" gradientTransform="matrix(1 0 0 -1 0 50)">
		<stop  offset="0" style="stop-color:#27E9DE"/>
		<stop  offset="0.52" style="stop-color:#03A4EC"/>
		<stop  offset="1" style="stop-color:#2547A8"/>
	</linearGradient>
	<polygon class="st5" points="31.5,36 16.5,36 19.2,3 28.8,3 	"/>
	
		<linearGradient id="SVGID_7_" gradientUnits="userSpaceOnUse" x1="24" y1="58.4756" x2="24" y2="31.326" gradientTransform="matrix(1 0 0 -1 0 50)">
		<stop  offset="0" style="stop-color:#27E9DE"/>
		<stop  offset="0.52" style="stop-color:#03A4EC"/>
		<stop  offset="1" style="stop-color:#2547A8"/>
	</linearGradient>
	<polygon class="st6" points="29.1,6 28.8,3 19.2,3 18.9,6 	"/>
	
		<linearGradient id="SVGID_8_" gradientUnits="userSpaceOnUse" x1="24" y1="14.5086" x2="24" y2="47.324" gradientTransform="matrix(1 0 0 -1 0 50)">
		<stop  offset="0" style="stop-color:#27E9DE"/>
		<stop  offset="0.52" style="stop-color:#03A4EC"/>
		<stop  offset="1" style="stop-color:#2547A8"/>
	</linearGradient>
	<polygon class="st7" points="6.1,22.5 41.9,22.5 39.5,12 8.5,12 	"/>
	
		<linearGradient id="SVGID_9_" gradientUnits="userSpaceOnUse" x1="24" y1="16.8869" x2="24" y2="58.5155" gradientTransform="matrix(1 0 0 -1 0 50)">
		<stop  offset="0" style="stop-color:#27E9DE"/>
		<stop  offset="0.52" style="stop-color:#03A4EC"/>
		<stop  offset="1" style="stop-color:#2547A8"/>
	</linearGradient>
	<polygon class="st8" points="17.6,22.5 30.4,22.5 29.5,12 18.5,12 	"/>
	
		<linearGradient id="SVGID_10_" gradientUnits="userSpaceOnUse" x1="24.0001" y1="11.341" x2="24.0001" y2="39.6897" gradientTransform="matrix(1 0 0 -1 0 50)">
		<stop  offset="0" style="stop-color:#27E9DE"/>
		<stop  offset="0.52" style="stop-color:#03A4EC"/>
		<stop  offset="1" style="stop-color:#2547A8"/>
	</linearGradient>
	<path class="st9" d="M6.6,36h34.9c0.9,0,1.8-0.4,2.3-1.2c0.3-0.5,0.2-1.3-0.4-1.6C43.2,33.1,43,33,42.7,33H5.3
		c-0.6,0-1.2,0.5-1.2,1.2c0,0.2,0.1,0.4,0.2,0.6C4.8,35.5,5.6,36,6.6,36z"/>
	
		<linearGradient id="SVGID_11_" gradientUnits="userSpaceOnUse" x1="23.9999" y1="8.0135" x2="23.9999" y2="31.306" gradientTransform="matrix(1 0 0 -1 0 50)">
		<stop  offset="0" style="stop-color:#27E9DE"/>
		<stop  offset="0.52" style="stop-color:#03A4EC"/>
		<stop  offset="1" style="stop-color:#2547A8"/>
	</linearGradient>
	<path class="st10" d="M16.7,33l-0.1,1c-0.1,1,0.6,1.9,1.6,2c0.1,0,0.1,0,0.2,0h11.1c1,0,1.8-0.8,1.8-1.8c0-0.1,0-0.1,0-0.2l-0.1-1
		H16.7z"/>
	<linearGradient id="SVGID_12_" gradientUnits="userSpaceOnUse" x1="23.6656" y1="81.1278" x2="23.6656" y2="-117.3963">
		<stop  offset="0.4432" style="stop-color:#FFFFFF"/>
		<stop  offset="1" style="stop-color:#FFFFFF;stop-opacity:0.36"/>
		<stop  offset="1" style="stop-color:#03A4EC"/>
		<stop  offset="1" style="stop-color:#2547A8"/>
	</linearGradient>
	<path class="st11" d="M54.6,29.5C34,29.7,13.4,29.8-7.2,30c1.9-8.5,3.8-17,5.7-25.6c16.8,0,33.6,0,50.4,0
		C50.8,12.8,52.7,21.2,54.6,29.5z"/>
	<g id="Text">
		
			<linearGradient id="SVGID_13_" gradientUnits="userSpaceOnUse" x1="42.5383" y1="6.5584" x2="42.5383" y2="44.8119" gradientTransform="matrix(1 0 0 -1 0 50)">
			<stop  offset="0.2711" style="stop-color:#8FA1BB;stop-opacity:0"/>
			<stop  offset="1" style="stop-color:#8FA1BB"/>
		</linearGradient>
		<path class="st12" d="M32.9,40.3c3.1-0.5,6.8-0.8,11-0.7c3.9,0.1,7.3,0.5,10.2,1c-2.5-8.8-5.1-17.6-7.6-26.5
			c-0.7-0.6-2.5-2.3-5.5-2.7c-0.9-0.1-3.1-0.4-5.5,0.8c-3.1,1.6-4.2,4.5-4.4,5.2C31.6,25,32.3,32.6,32.9,40.3z"/>
		
			<linearGradient id="SVGID_14_" gradientUnits="userSpaceOnUse" x1="23.3745" y1="7.5588" x2="23.3745" y2="45.9772" gradientTransform="matrix(1 0 0 -1 0 50)">
			<stop  offset="0.2711" style="stop-color:#8FA1BB;stop-opacity:0"/>
			<stop  offset="1" style="stop-color:#8FA1BB"/>
		</linearGradient>
		<path class="st13" d="M15.1,39.5c1.8-0.8,4.9-1.9,8.8-2c3.3-0.1,6,0.6,7.7,1.2c-0.7-9.3-1.3-18.5-2-27.8c-0.9-0.4-3.2-1.2-6.1-0.8
			c-2.8,0.4-4.7,1.8-5.5,2.4C17.1,21.6,16.1,30.5,15.1,39.5z"/>
		
			<linearGradient id="SVGID_15_" gradientUnits="userSpaceOnUse" x1="5.17" y1="7.5806" x2="5.17" y2="46.5288" gradientTransform="matrix(1 0 0 -1 0 50)">
			<stop  offset="0.2711" style="stop-color:#8FA1BB;stop-opacity:0"/>
			<stop  offset="1" style="stop-color:#8FA1BB"/>
		</linearGradient>
		<path class="st14" d="M-4.6,39.4c0.7-0.1,1.3-0.2,2-0.3c5.6-0.7,10.8-0.6,15.6,0c0.7-6.7,1.3-13.4,2-20.1
			c-0.5,0.3-4.7,3.2-7.8,1.6c-1.7-0.9-2.5-2.9-3.7-6.5c-0.7-1.9-1-3.5-1.3-4.6C-0.1,19.6-2.4,29.5-4.6,39.4z"/>
		
			<linearGradient id="SVGID_16_" gradientUnits="userSpaceOnUse" x1="11.5937" y1="25.6608" x2="11.5937" y2="42.8659" gradientTransform="matrix(1 0 0 -1 0 50)">
			<stop  offset="0.2711" style="stop-color:#8FA1BB;stop-opacity:0"/>
			<stop  offset="1" style="stop-color:#8FA1BB"/>
		</linearGradient>
		<path class="st15" d="M9,22.8c1.5,0.5,3.1,0.3,4-0.7c0.6-0.6,0.8-1.2,0.9-1.7c0.1-2.6,0.2-5.3,0.3-7.9c0.1-0.4,0.2-1.3-0.4-1.9
			c-0.2-0.2-0.5-0.3-1-0.5c-0.5-0.2-1-0.3-1.3-0.3C10.6,14.2,9.8,18.5,9,22.8z"/>
		<text transform="matrix(1 0 0 1 0.4737 23.4151)" class="st16 st17 st18">USQ</text>
	</g>
</g>
<g id="Capa_3">
</g>
</svg>
